# xmcd
#
# Track frame offsets:
#	182
#	11662
#	26367
#	38227
#	51057
#	63730
#	77085
#	89980
#	103405
#	115802
#
# Disc length: 1671 seconds
#
# Revision: 1
# Processed by: cddbd v1.5.2PL0 Copyright (c) Steve Scherf et al.
# Submitted via: audiograbber 1.83.01
#
DISCID=8606850a
DTITLE=Riley Coyle - Country In My Genes
DYEAR=1994
DGENRE=Country
TTITLE0=Don't Light My Fire
TTITLE1=Maybe This Time
TTITLE2=I Love What You Do To Me
TTITLE3=I Can Feel Him Touching You
TTITLE4=Make Love To Me
TTITLE5=Country In My Genes
TTITLE6=Every Time We Love We Learn
TTITLE7=Going Home (With Jeannie C. Riley)
TTITLE8=This Thing Called Love
TTITLE9=Cry
EXTD=
EXTT0=
EXTT1=
EXTT2=
EXTT3=
EXTT4=
EXTT5=
EXTT6=
EXTT7=
EXTT8=
EXTT9=
PLAYORDER=
